<svg width="40" height="40" viewBox="0 0 40 40" fill="none" xmlns="http://www.w3.org/2000/svg">
<path d="M20 40C31.0457 40 40 31.0457 40 20C40 8.95431 31.0457 0 20 0C8.95431 0 0 8.95431 0 20C0 31.0457 8.95431 40 20 40Z" fill="#FFF8E7"/>
<path d="M14.8161 12.043C14.4685 9.76571 15.8387 6.7693 17.1464 4.94056C17.4561 5.92139 17.8232 7.00239 18.1111 7.87581C18.7176 6.44936 19.7467 5.08668 21.013 4.16055C20.9141 4.96298 21.1747 6.62438 21.0541 7.31939C22.0333 6.07857 23.0994 5.45363 24.144 4.72127C23.9904 7.09965 23.0203 9.49371 22.9741 11.8504L14.8161 12.043Z" fill="#BC0055"/>
<path d="M21.2782 35.7047H18.6721C13.4598 35.7047 9.2417 31.4851 9.2417 26.271V10.1541H30.7085V26.271C30.7085 31.4851 26.4814 35.7047 21.2782 35.7047Z" fill="#00BC67"/>
<path d="M17.8257 15.489C17.8257 16.831 18.9215 17.9269 20.2634 17.9269C21.6053 17.9269 22.7012 16.831 22.7012 15.489C22.7012 14.1359 21.6053 13.0511 20.2634 13.0511C18.9104 13.0511 17.8257 14.1471 17.8257 15.489Z" fill="white"/>
<path d="M18.7314 14.6055C18.7314 15.0081 19.0557 15.3324 19.4583 15.3324C19.8608 15.3324 20.1851 15.0081 20.1851 14.6055C20.1851 14.2029 19.8608 13.8786 19.4583 13.8786C19.0557 13.8898 18.7314 14.2141 18.7314 14.6055Z" fill="black"/>
<path d="M19.0894 14.3036C19.0894 14.4155 19.1788 14.5049 19.2906 14.5049C19.4025 14.5049 19.4919 14.4155 19.4919 14.3036C19.4919 14.1918 19.4025 14.1023 19.2906 14.1023C19.1788 14.1023 19.0894 14.1918 19.0894 14.3036Z" fill="white"/>
<path d="M22.9919 18.2624C22.9919 19.6044 24.0878 20.7003 25.4297 20.7003C26.7716 20.7003 27.8674 19.6044 27.8674 18.2624C27.8674 16.9093 26.7716 15.8246 25.4297 15.8246C24.0878 15.8246 22.9919 16.9205 22.9919 18.2624Z" fill="white"/>
<path d="M23.9089 17.379C23.9089 17.7815 24.2332 18.1058 24.6358 18.1058C25.0383 18.1058 25.3626 17.7815 25.3626 17.379C25.3626 16.9764 25.0383 16.6521 24.6358 16.6521C24.2332 16.6521 23.9089 16.9764 23.9089 17.379Z" fill="black"/>
<path d="M24.2556 17.0659C24.2556 17.1778 24.3451 17.2672 24.4569 17.2672C24.5687 17.2672 24.6582 17.1778 24.6582 17.0659C24.6582 16.9541 24.5687 16.8647 24.4569 16.8647C24.3451 16.8647 24.2556 16.9541 24.2556 17.0659Z" fill="white"/>
<path d="M12.3577 17.6027C12.3577 18.9446 13.4535 20.0405 14.7954 20.0405C16.1373 20.0405 17.2331 18.9446 17.2331 17.6027C17.2331 16.2607 16.1373 15.1648 14.7954 15.1648C13.4423 15.1648 12.3577 16.2607 12.3577 17.6027Z" fill="white"/>
<path d="M13.2747 16.7192C13.2747 17.1217 13.5989 17.446 14.0015 17.446C14.4041 17.446 14.7284 17.1217 14.7284 16.7192C14.7284 16.3166 14.4041 15.9923 14.0015 15.9923C13.5878 16.0035 13.2747 16.3278 13.2747 16.7192Z" fill="black"/>
<path d="M13.6213 16.4173C13.6213 16.5291 13.7108 16.6186 13.8226 16.6186C13.9344 16.6186 14.0239 16.5291 14.0239 16.4173C14.0239 16.3054 13.9344 16.216 13.8226 16.216C13.7108 16.216 13.6213 16.3054 13.6213 16.4173Z" fill="white"/>
<path d="M20.1131 23.8897C21.4553 23.7842 22.4578 22.6106 22.3523 21.2684C22.2469 19.9262 21.0733 18.9236 19.7312 19.0291C18.389 19.1345 17.3865 20.3081 17.492 21.6503C17.5974 22.9926 18.771 23.9952 20.1131 23.8897Z" fill="white"/>
<path d="M18.4072 20.5772C18.4072 20.9798 18.7315 21.3041 19.1341 21.3041C19.5366 21.3041 19.8609 20.9798 19.8609 20.5772C19.8609 20.1746 19.5366 19.8503 19.1341 19.8503C18.7315 19.8503 18.4072 20.1858 18.4072 20.5772Z" fill="black"/>
<path d="M18.7539 20.2751C18.7539 20.3869 18.8434 20.4764 18.9552 20.4764C19.067 20.4764 19.1565 20.3869 19.1565 20.2751C19.1565 20.1633 19.067 20.0738 18.9552 20.0738C18.8434 20.0738 18.7539 20.1633 18.7539 20.2751Z" fill="white"/>
<path d="M26.5428 26.4035C27.8531 26.0941 28.6644 24.781 28.355 23.4707C28.0456 22.1604 26.7327 21.349 25.4225 21.6584C24.1122 21.9678 23.3009 23.2808 23.6102 24.5912C23.9196 25.9015 25.2326 26.7129 26.5428 26.4035Z" fill="white"/>
<path d="M24.457 23.1604C24.457 23.563 24.7813 23.8873 25.1839 23.8873C25.5864 23.8873 25.9107 23.563 25.9107 23.1604C25.9107 22.7578 25.5864 22.4335 25.1839 22.4335C24.7813 22.4335 24.457 22.7578 24.457 23.1604Z" fill="black"/>
<path d="M24.8147 22.8472C24.8147 22.959 24.9041 23.0485 25.016 23.0485C25.1278 23.0485 25.2173 22.959 25.2173 22.8472C25.2173 22.7354 25.1278 22.6459 25.016 22.6459C24.9041 22.6459 24.8147 22.7354 24.8147 22.8472Z" fill="white"/>
<path d="M11.217 23.3282C11.217 24.6813 12.3129 25.7661 13.6548 25.7661C14.9966 25.7661 16.0925 24.6702 16.0925 23.3282C16.0925 21.9863 14.9966 20.8904 13.6548 20.8904C12.3129 20.8904 11.217 21.9751 11.217 23.3282Z" fill="white"/>
<path d="M12.134 22.4447C12.134 22.8473 12.4583 23.1716 12.8609 23.1716C13.2634 23.1716 13.5877 22.8473 13.5877 22.4447C13.5877 22.0421 13.2634 21.7178 12.8609 21.7178C12.4583 21.7178 12.134 22.0421 12.134 22.4447Z" fill="black"/>
<path d="M12.4807 22.1317C12.4807 22.2435 12.5702 22.333 12.682 22.333C12.7938 22.333 12.8833 22.2435 12.8833 22.1317C12.8833 22.0199 12.7938 21.9304 12.682 21.9304C12.5702 21.9304 12.4807 22.0199 12.4807 22.1317Z" fill="white"/>
<path d="M19.7936 24.8044C24.0093 24.8714 23.7521 26.9738 23.7521 26.9738C23.7521 27.8908 22.7122 28.5171 21.4374 28.6289C20.9678 28.6736 20.3863 28.6848 19.7936 28.696C19.1898 28.696 18.6083 28.6736 18.1498 28.6289C16.8862 28.5171 15.8351 27.8908 15.8351 26.9738C15.8239 26.9738 15.5667 24.8826 19.7936 24.8044Z" fill="black"/>
<path d="M16.4614 28.0698C17.0429 27.1529 18.2841 26.5266 19.7378 26.5266C21.2139 26.5266 22.4775 27.1864 23.0478 28.1258C22.634 28.4053 22.0637 28.5731 21.4487 28.629C20.9791 28.6737 20.3976 28.6849 19.8049 28.6961C19.2011 28.6961 18.6196 28.6737 18.1611 28.629C17.479 28.5731 16.8864 28.3718 16.4614 28.0698Z" fill="#E86792"/>
<path d="M21.5045 24.9832C21.1131 24.8937 20.6434 24.8378 20.0955 24.8155V26.1462C20.0955 26.1798 20.1179 26.2021 20.1514 26.2021H21.4486C21.4821 26.2021 21.5045 26.1798 21.5045 26.1462V24.9832ZM18.0715 24.9832V26.1462C18.0715 26.1798 18.0939 26.2021 18.1274 26.2021H19.4246C19.4581 26.2021 19.4805 26.1798 19.4805 26.1462V24.8155C18.9326 24.8378 18.4629 24.9049 18.0715 24.9832Z" fill="white"/>
<path d="M20.0804 10.886C22.0566 10.6908 23.7587 11.4973 23.879 12.6842C23.9265 13.1755 23.6579 13.4458 23.0619 13.5004C22.7751 13.5226 22.4293 13.5041 22.0286 13.4836C21.5181 13.4589 20.9313 13.4148 20.3241 13.4745C19.7169 13.5341 19.1503 13.6833 18.656 13.8132C18.2674 13.9086 17.9338 14.006 17.647 14.0283C17.051 14.0828 16.7399 13.8732 16.6923 13.3819C16.5832 12.1899 18.1043 11.0812 20.0804 10.886Z" fill="#BC0055"/>
</svg>
