<svg width="24" height="24" viewBox="0 0 24 24" fill="none" xmlns="http://www.w3.org/2000/svg">
<mask id="mask0_29_2690" style="mask-type:alpha" maskUnits="userSpaceOnUse" x="0" y="0" width="24" height="25">
<rect y="0.00244141" width="24" height="24" fill="#D9D9D9"/>
</mask>
<g mask="url(#mask0_29_2690)">
<path d="M1 17.2024C1 16.6358 1.14583 16.1149 1.4375 15.6399C1.72917 15.1649 2.11667 14.8024 2.6 14.5524C3.63333 14.0358 4.68333 13.6483 5.75 13.3899C6.81667 13.1316 7.9 13.0024 9 13.0024C10.1 13.0024 11.1833 13.1316 12.25 13.3899C13.3167 13.6483 14.3667 14.0358 15.4 14.5524C15.8833 14.8024 16.2708 15.1649 16.5625 15.6399C16.8542 16.1149 17 16.6358 17 17.2024V18.0024C17 18.5524 16.8042 19.0233 16.4125 19.4149C16.0208 19.8066 15.55 20.0024 15 20.0024H3C2.45 20.0024 1.97917 19.8066 1.5875 19.4149C1.19583 19.0233 1 18.5524 1 18.0024V17.2024ZM21 20.0024H18.45C18.6333 19.7024 18.7708 19.3816 18.8625 19.0399C18.9542 18.6983 19 18.3524 19 18.0024V17.0024C19 16.2691 18.7958 15.5649 18.3875 14.8899C17.9792 14.2149 17.4 13.6358 16.65 13.1524C17.5 13.2524 18.3 13.4233 19.05 13.6649C19.8 13.9066 20.5 14.2024 21.15 14.5524C21.75 14.8858 22.2083 15.2566 22.525 15.6649C22.8417 16.0733 23 16.5191 23 17.0024V18.0024C23 18.5524 22.8042 19.0233 22.4125 19.4149C22.0208 19.8066 21.55 20.0024 21 20.0024ZM9 12.0024C7.9 12.0024 6.95833 11.6108 6.175 10.8274C5.39167 10.0441 5 9.10244 5 8.00244C5 6.90244 5.39167 5.96077 6.175 5.17744C6.95833 4.39411 7.9 4.00244 9 4.00244C10.1 4.00244 11.0417 4.39411 11.825 5.17744C12.6083 5.96077 13 6.90244 13 8.00244C13 9.10244 12.6083 10.0441 11.825 10.8274C11.0417 11.6108 10.1 12.0024 9 12.0024ZM19 8.00244C19 9.10244 18.6083 10.0441 17.825 10.8274C17.0417 11.6108 16.1 12.0024 15 12.0024C14.8167 12.0024 14.5833 11.9816 14.3 11.9399C14.0167 11.8983 13.7833 11.8524 13.6 11.8024C14.05 11.2691 14.3958 10.6774 14.6375 10.0274C14.8792 9.37744 15 8.70244 15 8.00244C15 7.30244 14.8792 6.62744 14.6375 5.97744C14.3958 5.32744 14.05 4.73577 13.6 4.20244C13.8333 4.11911 14.0667 4.06494 14.3 4.03994C14.5333 4.01494 14.7667 4.00244 15 4.00244C16.1 4.00244 17.0417 4.39411 17.825 5.17744C18.6083 5.96077 19 6.90244 19 8.00244ZM3 18.0024H15V17.2024C15 17.0191 14.9542 16.8524 14.8625 16.7024C14.7708 16.5524 14.65 16.4358 14.5 16.3524C13.6 15.9024 12.6917 15.5649 11.775 15.3399C10.8583 15.1149 9.93333 15.0024 9 15.0024C8.06667 15.0024 7.14167 15.1149 6.225 15.3399C5.30833 15.5649 4.4 15.9024 3.5 16.3524C3.35 16.4358 3.22917 16.5524 3.1375 16.7024C3.04583 16.8524 3 17.0191 3 17.2024V18.0024ZM9 10.0024C9.55 10.0024 10.0208 9.80661 10.4125 9.41494C10.8042 9.02327 11 8.55244 11 8.00244C11 7.45244 10.8042 6.98161 10.4125 6.58994C10.0208 6.19827 9.55 6.00244 9 6.00244C8.45 6.00244 7.97917 6.19827 7.5875 6.58994C7.19583 6.98161 7 7.45244 7 8.00244C7 8.55244 7.19583 9.02327 7.5875 9.41494C7.97917 9.80661 8.45 10.0024 9 10.0024Z" fill="#667085"/>
</g>
</svg>
